<svg width="16" height="15" viewBox="0 0 16 15" fill="none" xmlns="http://www.w3.org/2000/svg">
<path d="M11.7333 14.5392H4.26664C3.05331 14.5392 1.94664 13.6059 1.74664 12.4126L0.859974 7.09923C0.713307 6.27256 1.11997 5.21256 1.77997 4.6859L6.39997 0.985897C7.29331 0.265897 8.69997 0.272564 9.59997 0.992564L14.22 4.6859C14.8733 5.21256 15.2733 6.27256 15.14 7.09923L14.2533 12.4059C14.0533 13.5859 12.92 14.5392 11.7333 14.5392ZM7.99331 1.45256C7.63997 1.45256 7.28664 1.55923 7.02664 1.7659L2.40664 5.47256C2.03331 5.77256 1.76664 6.4659 1.84664 6.93923L2.73331 12.2459C2.85331 12.9459 3.55331 13.5392 4.26664 13.5392H11.7333C12.4466 13.5392 13.1466 12.9459 13.2666 12.2392L14.1533 6.93256C14.2266 6.4659 13.96 5.75923 13.5933 5.4659L8.97331 1.77256C8.70664 1.55923 8.34664 1.45256 7.99331 1.45256Z" fill="#6922D1"/>
</svg>
